# xmcd
#
# Track frame offsets: 
#        150
#        15065
#        27137
#        39092
#        50837
#        65062
#        77670
#        92200
#        104910
#        120310
#        134015
#        145485
#        158957
#        174480
#        189997
#        205255
#        221490
#        237050
#        249887
#        264287
#        278662
#        293025
#        303645
#        316387
#        328617
#
# Disc length: 4552 seconds
#
# Revision: 0
# Processed by: cddbd v1.4PL0 Copyright (c) Steve Scherf et al.
# Submitted via: ExactAudioCopy v0.95a4
#
DISCID=6211c619
DTITLE=Robert Lee McCoy - Complete Recorded Works (1937 - 1940)
DYEAR=1998
DGENRE=Blues
TTITLE0=Tough Luck
TTITLE1=Lonesome World
TTITLE2=G-Man
TTITLE3=Don't Mistreat Your Woman
TTITLE4=Prowling Night-Hawk
TTITLE5=Sweet Pepper Mama
TTITLE6=My Friend Has Forsaken Me
TTITLE7=Mean Black Cat
TTITLE8=Brickyard
TTITLE9=Mamie Lee
TTITLE10=Take It Easy, Baby
TTITLE11=I Have Spent My Bonus
TTITLE12=CNA
TTITLE13=Every Day And Night
TTITLE14=Ol' Mose
TTITLE15=You're All I've Got To Live For
TTITLE16=She's Got What It Takes
TTITLE17=Next-Door Neighbor
TTITLE18=Big Apple Blues
TTITLE19=Freight Train Blues
TTITLE20=Good Gamblin'
TTITLE21=Gonna Keep It For My Daddy
TTITLE22=Never Leave Me (Ann Sortier, vcl.)
TTITLE23=Mama Don't Allow Me To Stay Out All Night Long
TTITLE24=Friar's Point Blues
EXTD=
EXTT0=
EXTT1=
EXTT2=
EXTT3=
EXTT4=
EXTT5=
EXTT6=
EXTT7=
EXTT8=
EXTT9=
EXTT10=
EXTT11=
EXTT12=
EXTT13=
EXTT14=
EXTT15=
EXTT16=
EXTT17=
EXTT18=
EXTT19=
EXTT20=
EXTT21=
EXTT22=
EXTT23=
EXTT24=
PLAYORDER=
